<?xml version="1.0" encoding="UTF-8"?>
<svg xmlns="http://www.w3.org/2000/svg" xmlns:xlink="http://www.w3.org/1999/xlink" width="29px" height="20px" viewBox="0 0 28 20" version="1.1">
<g id="surface1">
<path style=" stroke:none;fill-rule:nonzero;fill:rgb(100%,0%,0%);fill-opacity:1;" d="M 27.121094 3.183594 C 26.800781 1.957031 25.875 1 24.6875 0.671875 C 23.097656 0.0390625 7.679688 -0.273438 3.203125 0.691406 C 2.019531 1.023438 1.09375 1.976562 0.773438 3.199219 C 0.0546875 6.453125 0 13.492188 0.792969 16.816406 C 1.113281 18.042969 2.039062 19 3.222656 19.328125 C 6.375 20.078125 21.359375 20.183594 24.707031 19.328125 C 25.890625 18.996094 26.820312 18.042969 27.136719 16.816406 C 27.902344 13.273438 27.957031 6.671875 27.121094 3.183594 Z M 27.121094 3.183594 "/>
<path style=" stroke:none;fill-rule:nonzero;fill:rgb(100%,100%,100%);fill-opacity:1;" d="M 18.492188 10 L 11.304688 5.746094 L 11.304688 14.253906 Z M 18.492188 10 "/>
</g>
</svg>
